<svg xmlns="http://www.w3.org/2000/svg" xmlns:xlink="http://www.w3.org/1999/xlink" width="1920" zoomAndPan="magnify" viewBox="0 0 1440 809.999993" height="1080" preserveAspectRatio="xMidYMid meet" version="1.0"><defs><g/><clipPath id="b2aa1c751b"><path d="M 0.160156 27 L 119 27 L 119 151 L 0.160156 151 Z M 0.160156 27 " clip-rule="nonzero"/></clipPath><clipPath id="121487e990"><rect x="0" width="418" y="0" height="170"/></clipPath><clipPath id="29807a35c5"><rect x="0" width="355" y="0" height="170"/></clipPath><clipPath id="5e241e8335"><rect x="0" width="438" y="0" height="201"/></clipPath></defs><g transform="matrix(1, 0, 0, 1, 146, 261)"><g clip-path="url(#121487e990)"><g clip-path="url(#b2aa1c751b)"><g fill="#000000" fill-opacity="1"><g transform="translate(4.696369, 150.071558)"><g><path d="M 96.578125 -46.0625 C 97.316406 -48.570312 98.570312 -50.40625 100.34375 -51.5625 C 102.113281 -52.726562 103.925781 -53.3125 105.78125 -53.3125 C 107.925781 -53.3125 109.832031 -52.660156 111.5 -51.359375 C 113.175781 -50.054688 114.015625 -48.195312 114.015625 -45.78125 C 114.015625 -44.664062 113.832031 -43.59375 113.46875 -42.5625 C 110.675781 -34.1875 107.253906 -26.789062 103.203125 -20.375 C 99.160156 -13.957031 94.414062 -8.957031 88.96875 -5.375 C 83.53125 -1.789062 77.320312 0 70.34375 0 C 65.6875 0 61.378906 -0.878906 57.421875 -2.640625 C 53.472656 -4.410156 50.289062 -7.019531 47.875 -10.46875 C 44.425781 -7.019531 40.539062 -4.410156 36.21875 -2.640625 C 31.894531 -0.878906 27.6875 0 23.59375 0 C 18.46875 0 13.832031 -1.09375 9.6875 -3.28125 C 5.550781 -5.46875 2.273438 -8.46875 -0.140625 -12.28125 C -2.554688 -16.09375 -3.765625 -20.46875 -3.765625 -25.40625 C -3.765625 -28.75 -3.113281 -32.238281 -1.8125 -35.875 L 20.9375 -99.921875 C 22.519531 -104.390625 24.960938 -108.203125 28.265625 -111.359375 C 31.566406 -114.523438 35.359375 -116.945312 39.640625 -118.625 C 43.921875 -120.300781 48.335938 -121.140625 52.890625 -121.140625 C 54.941406 -121.140625 57.222656 -120.882812 59.734375 -120.375 C 62.242188 -119.863281 64.660156 -119.023438 66.984375 -117.859375 C 69.316406 -116.691406 71.179688 -115.039062 72.578125 -112.90625 C 73.691406 -115.976562 75.570312 -118.300781 78.21875 -119.875 C 80.875 -121.457031 83.550781 -122.25 86.25 -122.25 C 88.851562 -122.25 91.15625 -121.484375 93.15625 -119.953125 C 95.15625 -118.421875 96.15625 -116.023438 96.15625 -112.765625 C 96.15625 -110.992188 95.738281 -108.898438 94.90625 -106.484375 L 67.6875 -30.421875 C 66.664062 -27.628906 66.15625 -25.257812 66.15625 -23.3125 C 66.15625 -21.445312 66.6875 -20.023438 67.75 -19.046875 C 68.820312 -18.066406 70.242188 -17.578125 72.015625 -17.578125 C 76.578125 -17.578125 81.019531 -20.132812 85.34375 -25.25 C 89.664062 -30.375 93.410156 -37.3125 96.578125 -46.0625 Z M 28.328125 -21.078125 C 30.742188 -21.078125 33.066406 -21.585938 35.296875 -22.609375 C 37.535156 -23.628906 39.722656 -25.507812 41.859375 -28.25 C 44.003906 -31 45.960938 -34.929688 47.734375 -40.046875 L 64.484375 -87.09375 C 64.660156 -87.550781 64.796875 -88.035156 64.890625 -88.546875 C 64.984375 -89.054688 65.03125 -89.546875 65.03125 -90.015625 C 65.03125 -92.898438 63.84375 -95.4375 61.46875 -97.625 C 59.101562 -99.8125 56.335938 -100.90625 53.171875 -100.90625 C 50.378906 -100.90625 47.84375 -99.953125 45.5625 -98.046875 C 43.28125 -96.140625 41.535156 -93.554688 40.328125 -90.296875 L 21.078125 -35.453125 C 20.328125 -33.210938 19.953125 -31.304688 19.953125 -29.734375 C 19.953125 -27.210938 20.695312 -25.140625 22.1875 -23.515625 C 23.675781 -21.890625 25.722656 -21.078125 28.328125 -21.078125 Z M 28.328125 -21.078125 "/></g></g></g></g><g fill="#000000" fill-opacity="1"><g transform="translate(94.429939, 150.071558)"><g><path d="M 79.96875 -40.46875 C 80.707031 -42.707031 81.914062 -44.335938 83.59375 -45.359375 C 85.269531 -46.378906 86.992188 -46.890625 88.765625 -46.890625 C 90.898438 -46.890625 92.851562 -46.257812 94.625 -45 C 96.394531 -43.75 97.28125 -42.007812 97.28125 -39.78125 C 97.28125 -38.9375 97.140625 -38.097656 96.859375 -37.265625 C 93.597656 -27.585938 89.828125 -20.050781 85.546875 -14.65625 C 81.265625 -9.257812 76.796875 -5.46875 72.140625 -3.28125 C 67.492188 -1.09375 62.941406 0 58.484375 0 C 54.296875 0 50.429688 -0.859375 46.890625 -2.578125 C 43.359375 -4.296875 40.566406 -6.644531 38.515625 -9.625 C 35.910156 -6.832031 33.003906 -4.53125 29.796875 -2.71875 C 26.585938 -0.90625 22.890625 0 18.703125 0 C 14.796875 0 11.257812 -0.789062 8.09375 -2.375 C 4.925781 -3.957031 2.410156 -6.1875 0.546875 -9.0625 C -1.304688 -11.945312 -2.234375 -15.253906 -2.234375 -18.984375 C -2.234375 -21.398438 -1.816406 -23.863281 -0.984375 -26.375 L 15.359375 -73.96875 C 16.378906 -76.757812 17.816406 -78.78125 19.671875 -80.03125 C 21.535156 -81.289062 23.445312 -81.921875 25.40625 -81.921875 C 28.007812 -81.921875 30.359375 -81.035156 32.453125 -79.265625 C 34.546875 -77.503906 35.59375 -75.179688 35.59375 -72.296875 C 35.59375 -70.992188 35.3125 -69.550781 34.75 -67.96875 L 19.53125 -24.421875 C 19.070312 -22.835938 18.84375 -21.394531 18.84375 -20.09375 C 18.84375 -17.769531 19.910156 -16.609375 22.046875 -16.609375 C 24.835938 -16.609375 27.628906 -18.023438 30.421875 -20.859375 C 33.210938 -23.703125 35.585938 -27.03125 37.546875 -30.84375 L 52.890625 -73.6875 C 53.910156 -76.664062 55.375 -78.78125 57.28125 -80.03125 C 59.195312 -81.289062 61.175781 -81.921875 63.21875 -81.921875 C 65.726562 -81.921875 68.003906 -81.0625 70.046875 -79.34375 C 72.097656 -77.625 73.125 -75.367188 73.125 -72.578125 C 73.125 -71.921875 73.078125 -71.289062 72.984375 -70.6875 C 72.898438 -70.082031 72.71875 -69.410156 72.4375 -68.671875 L 55.828125 -22.046875 C 55.546875 -21.398438 55.40625 -20.703125 55.40625 -19.953125 C 55.40625 -19.023438 55.800781 -18.234375 56.59375 -17.578125 C 57.382812 -16.929688 58.382812 -16.609375 59.59375 -16.609375 C 62.851562 -16.609375 66.269531 -18.488281 69.84375 -22.25 C 73.425781 -26.019531 76.800781 -32.09375 79.96875 -40.46875 Z M 79.96875 -40.46875 "/></g></g></g><g fill="#000000" fill-opacity="1"><g transform="translate(169.649848, 150.071558)"><g><path d="M 77.875 -40.1875 C 78.625 -42.519531 79.90625 -44.21875 81.71875 -45.28125 C 83.53125 -46.351562 85.367188 -46.890625 87.234375 -46.890625 C 89.367188 -46.890625 91.269531 -46.304688 92.9375 -45.140625 C 94.613281 -43.984375 95.453125 -42.285156 95.453125 -40.046875 C 95.453125 -39.117188 95.222656 -38.050781 94.765625 -36.84375 C 91.597656 -27.820312 87.875 -20.613281 83.59375 -15.21875 C 79.3125 -9.820312 74.773438 -5.9375 69.984375 -3.5625 C 65.191406 -1.1875 60.425781 0 55.6875 0 C 51.78125 0 48.101562 -0.742188 44.65625 -2.234375 C 41.21875 -3.722656 38.453125 -5.929688 36.359375 -8.859375 C 34.265625 -11.796875 33.21875 -15.398438 33.21875 -19.671875 C 33.21875 -21.160156 33.378906 -22.671875 33.703125 -24.203125 C 34.023438 -25.742188 34.46875 -27.304688 35.03125 -28.890625 L 45.21875 -57.640625 C 45.6875 -59.035156 45.921875 -60.195312 45.921875 -61.125 C 45.921875 -62.425781 45.523438 -63.472656 44.734375 -64.265625 C 43.941406 -65.054688 42.894531 -65.453125 41.59375 -65.453125 C 39.632812 -65.453125 37.515625 -64.613281 35.234375 -62.9375 C 32.953125 -61.269531 30.882812 -58.664062 29.03125 -55.125 C 27.445312 -50.65625 25.703125 -45.695312 23.796875 -40.25 C 21.890625 -34.8125 19.984375 -29.394531 18.078125 -24 C 16.171875 -18.601562 14.378906 -13.628906 12.703125 -9.078125 C 11.679688 -5.910156 9.9375 -3.554688 7.46875 -2.015625 C 5 -0.484375 2.554688 0.28125 0.140625 0.28125 C -2.085938 0.28125 -4.0625 -0.367188 -5.78125 -1.671875 C -7.507812 -2.972656 -8.375 -4.925781 -8.375 -7.53125 C -8.375 -8.738281 -8.1875 -9.90625 -7.8125 -11.03125 L 15.484375 -76.203125 C 16.234375 -78.148438 17.441406 -79.585938 19.109375 -80.515625 C 20.785156 -81.453125 22.601562 -81.921875 24.5625 -81.921875 C 26.425781 -81.921875 28.144531 -81.59375 29.71875 -80.9375 C 31.300781 -80.289062 32.28125 -79.316406 32.65625 -78.015625 C 36.195312 -80.617188 40.664062 -81.921875 46.0625 -81.921875 C 49.78125 -81.921875 53.195312 -81.0625 56.3125 -79.34375 C 59.425781 -77.625 61.9375 -75.296875 63.84375 -72.359375 C 65.75 -69.429688 66.703125 -66.109375 66.703125 -62.390625 C 66.703125 -60.148438 66.191406 -57.585938 65.171875 -54.703125 L 54.296875 -23.71875 C 53.828125 -22.144531 53.59375 -20.984375 53.59375 -20.234375 C 53.59375 -17.816406 54.894531 -16.609375 57.5 -16.609375 C 60.757812 -16.609375 64.203125 -18.445312 67.828125 -22.125 C 71.453125 -25.800781 74.800781 -31.820312 77.875 -40.1875 Z M 77.875 -40.1875 "/></g></g></g><g fill="#000000" fill-opacity="1"><g transform="translate(242.915996, 150.071558)"><g><path d="M 49.828125 -39.359375 C 50.660156 -41.585938 51.9375 -43.210938 53.65625 -44.234375 C 55.382812 -45.265625 57.128906 -45.78125 58.890625 -45.78125 C 61.035156 -45.78125 62.96875 -45.171875 64.6875 -43.953125 C 66.40625 -42.742188 67.265625 -41.070312 67.265625 -38.9375 C 67.265625 -38.5625 67.21875 -38.117188 67.125 -37.609375 C 67.03125 -37.097656 66.890625 -36.609375 66.703125 -36.140625 C 62.703125 -24.703125 57.144531 -15.816406 50.03125 -9.484375 C 42.914062 -3.160156 34.890625 0 25.953125 0 C 21.210938 0 16.769531 -0.878906 12.625 -2.640625 C 8.488281 -4.410156 5.164062 -6.992188 2.65625 -10.390625 C 0.144531 -13.785156 -1.109375 -17.859375 -1.109375 -22.609375 C -1.109375 -25.492188 -0.550781 -28.609375 0.5625 -31.953125 L 0.5625 -31.8125 L 12.28125 -65.453125 L 7.671875 -65.453125 C 5.816406 -65.453125 4.328125 -66.171875 3.203125 -67.609375 C 2.085938 -69.054688 1.53125 -70.757812 1.53125 -72.71875 C 1.53125 -74.945312 2.390625 -77.035156 4.109375 -78.984375 C 5.835938 -80.941406 8.5625 -81.921875 12.28125 -81.921875 L 18.140625 -81.921875 L 29.3125 -113.046875 C 30.144531 -115.460938 31.46875 -117.414062 33.28125 -118.90625 C 35.09375 -120.394531 37.164062 -121.140625 39.5 -121.140625 C 42.570312 -121.140625 44.96875 -120.234375 46.6875 -118.421875 C 48.40625 -116.609375 49.265625 -114.398438 49.265625 -111.796875 C 49.265625 -111.046875 49.125 -110.160156 48.84375 -109.140625 L 39.5 -81.921875 L 45.78125 -81.921875 C 48.476562 -81.921875 50.429688 -81.242188 51.640625 -79.890625 C 52.847656 -78.546875 53.453125 -76.941406 53.453125 -75.078125 C 53.453125 -72.753906 52.519531 -70.566406 50.65625 -68.515625 C 48.800781 -66.472656 46.101562 -65.453125 42.5625 -65.453125 L 33.5 -65.453125 L 19.8125 -26.515625 C 19.71875 -26.046875 19.601562 -25.53125 19.46875 -24.96875 C 19.332031 -24.414062 19.265625 -23.910156 19.265625 -23.453125 C 19.265625 -21.585938 19.984375 -19.976562 21.421875 -18.625 C 22.867188 -17.28125 24.847656 -16.609375 27.359375 -16.609375 C 31.453125 -16.609375 35.519531 -18.488281 39.5625 -22.25 C 43.613281 -26.019531 47.035156 -31.722656 49.828125 -39.359375 Z M 49.828125 -39.359375 "/></g></g></g><g fill="#000000" fill-opacity="1"><g transform="translate(288.550333, 150.071558)"><g><path d="M 37.546875 -94.765625 C 34.378906 -94.765625 31.675781 -95.90625 29.4375 -98.1875 C 27.207031 -100.46875 26.09375 -103.1875 26.09375 -106.34375 C 26.09375 -109.507812 27.207031 -112.1875 29.4375 -114.375 C 31.675781 -116.5625 34.378906 -117.65625 37.546875 -117.65625 C 40.703125 -117.65625 43.394531 -116.5625 45.625 -114.375 C 47.863281 -112.1875 48.984375 -109.507812 48.984375 -106.34375 C 48.984375 -103.1875 47.863281 -100.46875 45.625 -98.1875 C 43.394531 -95.90625 40.703125 -94.765625 37.546875 -94.765625 Z M 18.703125 -23.59375 C 18.421875 -22.75 18.28125 -22.003906 18.28125 -21.359375 C 18.28125 -20.054688 18.769531 -18.9375 19.75 -18 C 20.726562 -17.070312 22.007812 -16.609375 23.59375 -16.609375 C 26.375 -16.609375 29.507812 -18.328125 33 -21.765625 C 36.488281 -25.210938 39.863281 -31.445312 43.125 -40.46875 C 43.957031 -42.613281 45.234375 -44.195312 46.953125 -45.21875 C 48.679688 -46.238281 50.476562 -46.75 52.34375 -46.75 C 54.476562 -46.75 56.40625 -46.117188 58.125 -44.859375 C 59.84375 -43.609375 60.703125 -41.914062 60.703125 -39.78125 C 60.703125 -38.9375 60.566406 -38.097656 60.296875 -37.265625 C 57.035156 -27.679688 53.285156 -20.164062 49.046875 -14.71875 C 44.816406 -9.28125 40.351562 -5.46875 35.65625 -3.28125 C 30.957031 -1.09375 26.328125 0 21.765625 0 C 17.492188 0 13.566406 -0.8125 9.984375 -2.4375 C 6.398438 -4.070312 3.515625 -6.421875 1.328125 -9.484375 C -0.859375 -12.554688 -1.953125 -16.28125 -1.953125 -20.65625 C -1.953125 -21.863281 -1.71875 -23.304688 -1.25 -24.984375 C -0.789062 -26.660156 -0.375 -28.195312 0 -29.59375 C 1.488281 -33.957031 3.09375 -38.601562 4.8125 -43.53125 C 6.53125 -48.46875 8.25 -53.398438 9.96875 -58.328125 C 11.695312 -63.265625 13.304688 -67.921875 14.796875 -72.296875 C 15.910156 -75.546875 17.515625 -77.960938 19.609375 -79.546875 C 21.703125 -81.128906 23.816406 -81.921875 25.953125 -81.921875 C 28.378906 -81.921875 30.546875 -81.128906 32.453125 -79.546875 C 34.359375 -77.960938 35.3125 -75.640625 35.3125 -72.578125 C 35.3125 -71.921875 35.171875 -71.125 34.890625 -70.1875 C 34.609375 -69.257812 34.328125 -68.332031 34.046875 -67.40625 Z M 18.703125 -23.59375 "/></g></g></g><g fill="#000000" fill-opacity="1"><g transform="translate(327.067395, 150.071558)"><g><path d="M 70.625 -39.359375 C 71.269531 -41.492188 72.5 -43.097656 74.3125 -44.171875 C 76.125 -45.242188 78.007812 -45.78125 79.96875 -45.78125 C 82.101562 -45.78125 83.984375 -45.195312 85.609375 -44.03125 C 87.242188 -42.863281 88.0625 -41.210938 88.0625 -39.078125 C 88.0625 -38.148438 87.875 -37.171875 87.5 -36.140625 C 84.4375 -27.304688 80.160156 -20.238281 74.671875 -14.9375 C 69.179688 -9.632812 63.128906 -5.816406 56.515625 -3.484375 C 49.910156 -1.160156 43.351562 0 36.84375 0 C 30.050781 0 23.929688 -1.09375 18.484375 -3.28125 C 13.046875 -5.46875 8.742188 -8.582031 5.578125 -12.625 C 2.421875 -16.675781 0.84375 -21.445312 0.84375 -26.9375 C 0.84375 -28.519531 1.003906 -30.144531 1.328125 -31.8125 C 1.648438 -33.488281 2.09375 -35.164062 2.65625 -36.84375 L 10.890625 -60.703125 C 13.304688 -67.679688 17.257812 -72.960938 22.75 -76.546875 C 28.238281 -80.128906 34.097656 -81.921875 40.328125 -81.921875 C 45.628906 -81.921875 50.234375 -80.894531 54.140625 -78.84375 C 58.054688 -76.800781 61.109375 -74.007812 63.296875 -70.46875 C 65.484375 -66.9375 66.578125 -62.941406 66.578125 -58.484375 C 66.578125 -56.148438 66.203125 -53.585938 65.453125 -50.796875 C 63.585938 -44.566406 60.097656 -39.585938 54.984375 -35.859375 C 49.867188 -32.140625 44.148438 -30.28125 37.828125 -30.28125 C 35.035156 -30.28125 32.40625 -30.675781 29.9375 -31.46875 C 27.46875 -32.257812 25.210938 -33.257812 23.171875 -34.46875 L 22.046875 -31.8125 C 21.765625 -31.164062 21.578125 -30.515625 21.484375 -29.859375 C 21.398438 -29.210938 21.359375 -28.5625 21.359375 -27.90625 C 21.359375 -24.75 22.84375 -22.078125 25.8125 -19.890625 C 28.789062 -17.703125 32.84375 -16.609375 37.96875 -16.609375 C 41.96875 -16.609375 46.082031 -17.375 50.3125 -18.90625 C 54.539062 -20.445312 58.46875 -22.890625 62.09375 -26.234375 C 65.726562 -29.585938 68.570312 -33.960938 70.625 -39.359375 Z M 39.921875 -65.453125 C 38.335938 -65.453125 36.753906 -64.847656 35.171875 -63.640625 C 33.585938 -62.429688 32.425781 -60.753906 31.6875 -58.609375 L 28.75 -50.25 C 30.707031 -49.125 33.125 -48.5625 36 -48.5625 C 38.144531 -48.5625 40.144531 -49.023438 42 -49.953125 C 43.863281 -50.890625 45.125 -52.519531 45.78125 -54.84375 C 46.144531 -55.875 46.328125 -56.992188 46.328125 -58.203125 C 46.328125 -60.242188 45.742188 -61.960938 44.578125 -63.359375 C 43.421875 -64.753906 41.867188 -65.453125 39.921875 -65.453125 Z M 39.921875 -65.453125 "/></g></g></g></g></g><g transform="matrix(1, 0, 0, 1, 549, 379)"><g clip-path="url(#29807a35c5)"><g fill="#000000" fill-opacity="1"><g transform="translate(9.693067, 150.781992)"><g><path d="M 99.515625 -46.328125 C 101.648438 -46.328125 103.597656 -45.722656 105.359375 -44.515625 C 107.128906 -43.304688 108.015625 -41.632812 108.015625 -39.5 C 108.015625 -38.75 107.878906 -37.863281 107.609375 -36.84375 C 103.234375 -23.914062 97.460938 -14.539062 90.296875 -8.71875 C 83.128906 -2.90625 75.6875 0 67.96875 0 C 61.175781 0 55.640625 -2 51.359375 -6 C 47.078125 -10 44.9375 -15.488281 44.9375 -22.46875 C 44.9375 -24.425781 45.125 -26.472656 45.5 -28.609375 C 45.875 -30.742188 46.429688 -32.882812 47.171875 -35.03125 L 66.84375 -90.578125 C 67.21875 -91.597656 67.453125 -92.503906 67.546875 -93.296875 C 67.640625 -94.085938 67.6875 -94.804688 67.6875 -95.453125 C 67.6875 -97.785156 66.914062 -99.578125 65.375 -100.828125 C 63.84375 -102.085938 61.960938 -102.71875 59.734375 -102.71875 C 56.566406 -102.71875 53.378906 -101.644531 50.171875 -99.5 C 46.960938 -97.363281 44.613281 -94.25 43.125 -90.15625 L 14.796875 -10.1875 C 13.585938 -6.65625 11.863281 -4.070312 9.625 -2.4375 C 7.394531 -0.8125 5.023438 0 2.515625 0 C -0.273438 0 -2.765625 -0.878906 -4.953125 -2.640625 C -7.140625 -4.410156 -8.234375 -6.738281 -8.234375 -9.625 C -8.234375 -10.1875 -8.1875 -10.816406 -8.09375 -11.515625 C -8 -12.210938 -7.8125 -12.882812 -7.53125 -13.53125 L 28.75 -115.5625 C 29.488281 -117.507812 30.695312 -118.925781 32.375 -119.8125 C 34.050781 -120.695312 35.914062 -121.140625 37.96875 -121.140625 C 40.289062 -121.140625 42.453125 -120.601562 44.453125 -119.53125 C 46.453125 -118.46875 47.59375 -116.910156 47.875 -114.859375 C 50.570312 -117.367188 53.429688 -119.039062 56.453125 -119.875 C 59.472656 -120.71875 62.054688 -121.140625 64.203125 -121.140625 C 69.035156 -121.140625 73.425781 -120.1875 77.375 -118.28125 C 81.332031 -116.375 84.519531 -113.695312 86.9375 -110.25 C 89.363281 -106.8125 90.578125 -102.71875 90.578125 -97.96875 C 90.578125 -96.113281 90.410156 -94.320312 90.078125 -92.59375 C 89.753906 -90.875 89.269531 -89.175781 88.625 -87.5 L 67.40625 -27.359375 C 67.125 -26.703125 66.9375 -26.023438 66.84375 -25.328125 C 66.75 -24.628906 66.703125 -23.957031 66.703125 -23.3125 C 66.703125 -21.726562 67.164062 -20.375 68.09375 -19.25 C 69.03125 -18.132812 70.335938 -17.578125 72.015625 -17.578125 C 75.546875 -17.578125 78.960938 -19.671875 82.265625 -23.859375 C 85.578125 -28.046875 88.441406 -33.582031 90.859375 -40.46875 C 91.597656 -42.519531 92.78125 -44.007812 94.40625 -44.9375 C 96.039062 -45.863281 97.742188 -46.328125 99.515625 -46.328125 Z M 99.515625 -46.328125 "/></g></g></g><g fill="#000000" fill-opacity="1"><g transform="translate(95.798228, 150.781992)"><g><path d="M 37.546875 -94.765625 C 34.378906 -94.765625 31.675781 -95.90625 29.4375 -98.1875 C 27.207031 -100.46875 26.09375 -103.1875 26.09375 -106.34375 C 26.09375 -109.507812 27.207031 -112.1875 29.4375 -114.375 C 31.675781 -116.5625 34.378906 -117.65625 37.546875 -117.65625 C 40.703125 -117.65625 43.394531 -116.5625 45.625 -114.375 C 47.863281 -112.1875 48.984375 -109.507812 48.984375 -106.34375 C 48.984375 -103.1875 47.863281 -100.46875 45.625 -98.1875 C 43.394531 -95.90625 40.703125 -94.765625 37.546875 -94.765625 Z M 18.703125 -23.59375 C 18.421875 -22.75 18.28125 -22.003906 18.28125 -21.359375 C 18.28125 -20.054688 18.769531 -18.9375 19.75 -18 C 20.726562 -17.070312 22.007812 -16.609375 23.59375 -16.609375 C 26.375 -16.609375 29.507812 -18.328125 33 -21.765625 C 36.488281 -25.210938 39.863281 -31.445312 43.125 -40.46875 C 43.957031 -42.613281 45.234375 -44.195312 46.953125 -45.21875 C 48.679688 -46.238281 50.476562 -46.75 52.34375 -46.75 C 54.476562 -46.75 56.40625 -46.117188 58.125 -44.859375 C 59.84375 -43.609375 60.703125 -41.914062 60.703125 -39.78125 C 60.703125 -38.9375 60.566406 -38.097656 60.296875 -37.265625 C 57.035156 -27.679688 53.285156 -20.164062 49.046875 -14.71875 C 44.816406 -9.28125 40.351562 -5.46875 35.65625 -3.28125 C 30.957031 -1.09375 26.328125 0 21.765625 0 C 17.492188 0 13.566406 -0.8125 9.984375 -2.4375 C 6.398438 -4.070312 3.515625 -6.421875 1.328125 -9.484375 C -0.859375 -12.554688 -1.953125 -16.28125 -1.953125 -20.65625 C -1.953125 -21.863281 -1.71875 -23.304688 -1.25 -24.984375 C -0.789062 -26.660156 -0.375 -28.195312 0 -29.59375 C 1.488281 -33.957031 3.09375 -38.601562 4.8125 -43.53125 C 6.53125 -48.46875 8.25 -53.398438 9.96875 -58.328125 C 11.695312 -63.265625 13.304688 -67.921875 14.796875 -72.296875 C 15.910156 -75.546875 17.515625 -77.960938 19.609375 -79.546875 C 21.703125 -81.128906 23.816406 -81.921875 25.953125 -81.921875 C 28.378906 -81.921875 30.546875 -81.128906 32.453125 -79.546875 C 34.359375 -77.960938 35.3125 -75.640625 35.3125 -72.578125 C 35.3125 -71.921875 35.171875 -71.125 34.890625 -70.1875 C 34.609375 -69.257812 34.328125 -68.332031 34.046875 -67.40625 Z M 18.703125 -23.59375 "/></g></g></g><g fill="#000000" fill-opacity="1"><g transform="translate(134.315289, 150.781992)"><g><path d="M 70.625 -39.359375 C 71.269531 -41.492188 72.5 -43.097656 74.3125 -44.171875 C 76.125 -45.242188 78.007812 -45.78125 79.96875 -45.78125 C 82.101562 -45.78125 83.984375 -45.195312 85.609375 -44.03125 C 87.242188 -42.863281 88.0625 -41.210938 88.0625 -39.078125 C 88.0625 -38.148438 87.875 -37.171875 87.5 -36.140625 C 84.4375 -27.304688 80.160156 -20.238281 74.671875 -14.9375 C 69.179688 -9.632812 63.128906 -5.816406 56.515625 -3.484375 C 49.910156 -1.160156 43.351562 0 36.84375 0 C 30.050781 0 23.929688 -1.09375 18.484375 -3.28125 C 13.046875 -5.46875 8.742188 -8.582031 5.578125 -12.625 C 2.421875 -16.675781 0.84375 -21.445312 0.84375 -26.9375 C 0.84375 -28.519531 1.003906 -30.144531 1.328125 -31.8125 C 1.648438 -33.488281 2.09375 -35.164062 2.65625 -36.84375 L 10.890625 -60.703125 C 13.304688 -67.679688 17.257812 -72.960938 22.75 -76.546875 C 28.238281 -80.128906 34.097656 -81.921875 40.328125 -81.921875 C 45.628906 -81.921875 50.234375 -80.894531 54.140625 -78.84375 C 58.054688 -76.800781 61.109375 -74.007812 63.296875 -70.46875 C 65.484375 -66.9375 66.578125 -62.941406 66.578125 -58.484375 C 66.578125 -56.148438 66.203125 -53.585938 65.453125 -50.796875 C 63.585938 -44.566406 60.097656 -39.585938 54.984375 -35.859375 C 49.867188 -32.140625 44.148438 -30.28125 37.828125 -30.28125 C 35.035156 -30.28125 32.40625 -30.675781 29.9375 -31.46875 C 27.46875 -32.257812 25.210938 -33.257812 23.171875 -34.46875 L 22.046875 -31.8125 C 21.765625 -31.164062 21.578125 -30.515625 21.484375 -29.859375 C 21.398438 -29.210938 21.359375 -28.5625 21.359375 -27.90625 C 21.359375 -24.75 22.84375 -22.078125 25.8125 -19.890625 C 28.789062 -17.703125 32.84375 -16.609375 37.96875 -16.609375 C 41.96875 -16.609375 46.082031 -17.375 50.3125 -18.90625 C 54.539062 -20.445312 58.46875 -22.890625 62.09375 -26.234375 C 65.726562 -29.585938 68.570312 -33.960938 70.625 -39.359375 Z M 39.921875 -65.453125 C 38.335938 -65.453125 36.753906 -64.847656 35.171875 -63.640625 C 33.585938 -62.429688 32.425781 -60.753906 31.6875 -58.609375 L 28.75 -50.25 C 30.707031 -49.125 33.125 -48.5625 36 -48.5625 C 38.144531 -48.5625 40.144531 -49.023438 42 -49.953125 C 43.863281 -50.890625 45.125 -52.519531 45.78125 -54.84375 C 46.144531 -55.875 46.328125 -56.992188 46.328125 -58.203125 C 46.328125 -60.242188 45.742188 -61.960938 44.578125 -63.359375 C 43.421875 -64.753906 41.867188 -65.453125 39.921875 -65.453125 Z M 39.921875 -65.453125 "/></g></g></g><g fill="#000000" fill-opacity="1"><g transform="translate(200.46414, 150.781992)"><g><path d="M 67.546875 -41.453125 C 68.296875 -43.492188 69.4375 -44.957031 70.96875 -45.84375 C 72.5 -46.726562 74.148438 -47.171875 75.921875 -47.171875 C 78.054688 -47.171875 80.03125 -46.519531 81.84375 -45.21875 C 83.664062 -43.914062 84.578125 -42.148438 84.578125 -39.921875 C 84.578125 -38.890625 84.390625 -37.957031 84.015625 -37.125 C 81.035156 -28.65625 76.941406 -21.675781 71.734375 -16.1875 C 66.523438 -10.695312 60.660156 -6.625 54.140625 -3.96875 C 47.628906 -1.320312 40.929688 0 34.046875 0 C 27.253906 0 21.253906 -1.1875 16.046875 -3.5625 C 10.835938 -5.9375 6.789062 -9.210938 3.90625 -13.390625 C 1.019531 -17.578125 -0.421875 -22.328125 -0.421875 -27.640625 C -0.421875 -30.796875 0.132812 -34.050781 1.25 -37.40625 L 9.21875 -60.84375 C 10.882812 -65.78125 13.207031 -69.78125 16.1875 -72.84375 C 19.164062 -75.914062 22.492188 -78.195312 26.171875 -79.6875 C 29.847656 -81.175781 33.5 -81.921875 37.125 -81.921875 C 41.125 -81.921875 44.867188 -81.101562 48.359375 -79.46875 C 51.847656 -77.84375 54.660156 -75.492188 56.796875 -72.421875 C 58.941406 -69.359375 60.015625 -65.640625 60.015625 -61.265625 C 60.015625 -59.679688 59.875 -58.03125 59.59375 -56.3125 C 59.3125 -54.59375 58.800781 -52.800781 58.0625 -50.9375 C 56.851562 -47.769531 55.25 -45.488281 53.25 -44.09375 C 51.25 -42.707031 49.222656 -42.015625 47.171875 -42.015625 C 44.753906 -42.015625 42.566406 -42.847656 40.609375 -44.515625 C 38.660156 -46.191406 37.6875 -48.238281 37.6875 -50.65625 C 37.6875 -51.957031 38.054688 -53.351562 38.796875 -54.84375 C 39.816406 -56.894531 40.328125 -58.617188 40.328125 -60.015625 C 40.328125 -61.222656 39.976562 -62.195312 39.28125 -62.9375 C 38.582031 -63.6875 37.535156 -64.0625 36.140625 -64.0625 C 35.023438 -64.0625 33.863281 -63.570312 32.65625 -62.59375 C 31.445312 -61.613281 30.515625 -60.285156 29.859375 -58.609375 L 21.359375 -34.46875 C 20.796875 -32.695312 20.515625 -31.023438 20.515625 -29.453125 C 20.515625 -25.910156 21.929688 -22.90625 24.765625 -20.4375 C 27.609375 -17.976562 31.445312 -16.75 36.28125 -16.75 C 39.820312 -16.75 43.546875 -17.5625 47.453125 -19.1875 C 51.359375 -20.8125 55.101562 -23.4375 58.6875 -27.0625 C 62.269531 -30.695312 65.222656 -35.492188 67.546875 -41.453125 Z M 67.546875 -41.453125 "/></g></g></g><g fill="#000000" fill-opacity="1"><g transform="translate(262.845035, 150.781992)"><g><path d="M 70.625 -39.359375 C 71.269531 -41.492188 72.5 -43.097656 74.3125 -44.171875 C 76.125 -45.242188 78.007812 -45.78125 79.96875 -45.78125 C 82.101562 -45.78125 83.984375 -45.195312 85.609375 -44.03125 C 87.242188 -42.863281 88.0625 -41.210938 88.0625 -39.078125 C 88.0625 -38.148438 87.875 -37.171875 87.5 -36.140625 C 84.4375 -27.304688 80.160156 -20.238281 74.671875 -14.9375 C 69.179688 -9.632812 63.128906 -5.816406 56.515625 -3.484375 C 49.910156 -1.160156 43.351562 0 36.84375 0 C 30.050781 0 23.929688 -1.09375 18.484375 -3.28125 C 13.046875 -5.46875 8.742188 -8.582031 5.578125 -12.625 C 2.421875 -16.675781 0.84375 -21.445312 0.84375 -26.9375 C 0.84375 -28.519531 1.003906 -30.144531 1.328125 -31.8125 C 1.648438 -33.488281 2.09375 -35.164062 2.65625 -36.84375 L 10.890625 -60.703125 C 13.304688 -67.679688 17.257812 -72.960938 22.75 -76.546875 C 28.238281 -80.128906 34.097656 -81.921875 40.328125 -81.921875 C 45.628906 -81.921875 50.234375 -80.894531 54.140625 -78.84375 C 58.054688 -76.800781 61.109375 -74.007812 63.296875 -70.46875 C 65.484375 -66.9375 66.578125 -62.941406 66.578125 -58.484375 C 66.578125 -56.148438 66.203125 -53.585938 65.453125 -50.796875 C 63.585938 -44.566406 60.097656 -39.585938 54.984375 -35.859375 C 49.867188 -32.140625 44.148438 -30.28125 37.828125 -30.28125 C 35.035156 -30.28125 32.40625 -30.675781 29.9375 -31.46875 C 27.46875 -32.257812 25.210938 -33.257812 23.171875 -34.46875 L 22.046875 -31.8125 C 21.765625 -31.164062 21.578125 -30.515625 21.484375 -29.859375 C 21.398438 -29.210938 21.359375 -28.5625 21.359375 -27.90625 C 21.359375 -24.75 22.84375 -22.078125 25.8125 -19.890625 C 28.789062 -17.703125 32.84375 -16.609375 37.96875 -16.609375 C 41.96875 -16.609375 46.082031 -17.375 50.3125 -18.90625 C 54.539062 -20.445312 58.46875 -22.890625 62.09375 -26.234375 C 65.726562 -29.585938 68.570312 -33.960938 70.625 -39.359375 Z M 39.921875 -65.453125 C 38.335938 -65.453125 36.753906 -64.847656 35.171875 -63.640625 C 33.585938 -62.429688 32.425781 -60.753906 31.6875 -58.609375 L 28.75 -50.25 C 30.707031 -49.125 33.125 -48.5625 36 -48.5625 C 38.144531 -48.5625 40.144531 -49.023438 42 -49.953125 C 43.863281 -50.890625 45.125 -52.519531 45.78125 -54.84375 C 46.144531 -55.875 46.328125 -56.992188 46.328125 -58.203125 C 46.328125 -60.242188 45.742188 -61.960938 44.578125 -63.359375 C 43.421875 -64.753906 41.867188 -65.453125 39.921875 -65.453125 Z M 39.921875 -65.453125 "/></g></g></g></g></g><g transform="matrix(1, 0, 0, 1, 876, 261)"><g clip-path="url(#5e241e8335)"><g fill="#000000" fill-opacity="1"><g transform="translate(11.087816, 150.071558)"><g><path d="M 86.53125 -94.625 C 86.53125 -89.78125 85.363281 -86.332031 83.03125 -84.28125 C 80.707031 -82.238281 78.101562 -81.21875 75.21875 -81.21875 C 72.25 -81.21875 69.597656 -82.101562 67.265625 -83.875 C 64.941406 -85.644531 63.78125 -88.25 63.78125 -91.6875 C 63.78125 -92.625 63.59375 -93.671875 63.21875 -94.828125 C 62.84375 -95.992188 62.070312 -96.992188 60.90625 -97.828125 C 59.75 -98.671875 58.054688 -99.09375 55.828125 -99.09375 C 54.054688 -99.09375 52.050781 -98.601562 49.8125 -97.625 C 47.582031 -96.644531 45.441406 -95.128906 43.390625 -93.078125 C 41.347656 -91.035156 39.722656 -88.296875 38.515625 -84.859375 L 21.625 -37.546875 C 20.601562 -34.660156 20.09375 -32.097656 20.09375 -29.859375 C 20.09375 -26.796875 21.019531 -24.351562 22.875 -22.53125 C 24.738281 -20.71875 27.300781 -19.8125 30.5625 -19.8125 C 35.03125 -19.8125 38.984375 -21 42.421875 -23.375 C 45.867188 -25.75 48.476562 -29.351562 50.25 -34.1875 C 51.269531 -36.976562 52.382812 -40.210938 53.59375 -43.890625 C 54.800781 -47.566406 55.914062 -50.847656 56.9375 -53.734375 C 58.332031 -57.171875 59.519531 -60.171875 60.5 -62.734375 C 61.476562 -65.296875 62.664062 -67.296875 64.0625 -68.734375 C 65.457031 -70.171875 67.316406 -70.890625 69.640625 -70.890625 C 70.203125 -70.890625 70.832031 -70.84375 71.53125 -70.75 C 72.226562 -70.664062 72.898438 -70.53125 73.546875 -70.34375 C 76.148438 -69.6875 77.960938 -68.679688 78.984375 -67.328125 C 80.015625 -65.984375 80.53125 -64.335938 80.53125 -62.390625 C 80.53125 -61.085938 80.34375 -59.644531 79.96875 -58.0625 C 79.59375 -56.476562 79.082031 -54.753906 78.4375 -52.890625 L 62.65625 -12 C 68.144531 -14.789062 73.144531 -18.421875 77.65625 -22.890625 C 82.175781 -27.359375 85.691406 -33.171875 88.203125 -40.328125 C 89.222656 -43.023438 90.640625 -45.003906 92.453125 -46.265625 C 94.273438 -47.523438 96.113281 -48.15625 97.96875 -48.15625 C 100.019531 -48.15625 101.832031 -47.5 103.40625 -46.1875 C 104.988281 -44.882812 105.78125 -43.070312 105.78125 -40.75 C 105.78125 -39.632812 105.597656 -38.519531 105.234375 -37.40625 C 102.898438 -30.050781 99.921875 -23.789062 96.296875 -18.625 C 92.671875 -13.46875 88.625 -9.117188 84.15625 -5.578125 C 79.6875 -2.046875 75.007812 0.878906 70.125 3.203125 C 65.238281 5.535156 60.285156 7.492188 55.265625 9.078125 C 54.242188 11.953125 53.171875 14.878906 52.046875 17.859375 C 50.929688 20.835938 49.863281 23.816406 48.84375 26.796875 C 45.957031 34.890625 41.535156 40.84375 35.578125 44.65625 C 29.628906 48.46875 23.210938 50.375 16.328125 50.375 C 10.835938 50.375 6.140625 49.328125 2.234375 47.234375 C -1.671875 45.148438 -4.671875 42.40625 -6.765625 39 C -8.859375 35.601562 -9.90625 31.90625 -9.90625 27.90625 C -9.90625 22.050781 -8.394531 17.398438 -5.375 13.953125 C -2.351562 10.515625 1.785156 7.75 7.046875 5.65625 C 12.304688 3.5625 18.285156 1.675781 24.984375 0 C 17.078125 -0.832031 10.609375 -3.691406 5.578125 -8.578125 C 0.554688 -13.460938 -1.953125 -19.953125 -1.953125 -28.046875 C -1.953125 -30.191406 -1.789062 -32.378906 -1.46875 -34.609375 C -1.144531 -36.847656 -0.5625 -39.128906 0.28125 -41.453125 L 17.859375 -92.109375 C 20.367188 -99.367188 23.765625 -105.113281 28.046875 -109.34375 C 32.328125 -113.582031 36.957031 -116.609375 41.9375 -118.421875 C 46.914062 -120.234375 51.6875 -121.140625 56.25 -121.140625 C 62.195312 -121.140625 67.453125 -119.929688 72.015625 -117.515625 C 76.578125 -115.097656 80.132812 -111.863281 82.6875 -107.8125 C 85.25 -103.757812 86.53125 -99.363281 86.53125 -94.625 Z M 29.734375 15.484375 C 26.753906 16.234375 23.84375 17.140625 21 18.203125 C 18.164062 19.273438 15.816406 20.601562 13.953125 22.1875 C 12.097656 23.769531 11.171875 25.816406 11.171875 28.328125 C 11.171875 29.535156 11.5625 30.582031 12.34375 31.46875 C 13.132812 32.351562 14.320312 32.796875 15.90625 32.796875 C 17.957031 32.796875 19.957031 32.144531 21.90625 30.84375 C 23.863281 29.539062 25.304688 27.585938 26.234375 24.984375 Z M 29.734375 15.484375 "/></g></g></g><g fill="#000000" fill-opacity="1"><g transform="translate(94.541447, 150.071558)"><g><path d="M 87.5 -47.171875 C 89.550781 -47.171875 91.34375 -46.566406 92.875 -45.359375 C 94.414062 -44.148438 95.1875 -42.335938 95.1875 -39.921875 C 95.1875 -38.703125 94.859375 -37.160156 94.203125 -35.296875 C 93.554688 -33.441406 92.71875 -31.164062 91.6875 -28.46875 C 88.71875 -20.9375 85.160156 -15.125 81.015625 -11.03125 C 76.878906 -6.9375 72.597656 -4.070312 68.171875 -2.4375 C 63.753906 -0.8125 59.59375 0 55.6875 0 C 54.289062 0 52.40625 -0.179688 50.03125 -0.546875 C 47.65625 -0.921875 45.28125 -1.644531 42.90625 -2.71875 C 40.539062 -3.789062 38.613281 -5.394531 37.125 -7.53125 C 34.519531 -5.207031 31.613281 -3.367188 28.40625 -2.015625 C 25.195312 -0.671875 21.960938 0 18.703125 0 C 14.609375 0 10.929688 -0.953125 7.671875 -2.859375 C 4.421875 -4.765625 1.84375 -7.320312 -0.0625 -10.53125 C -1.976562 -13.75 -2.9375 -17.265625 -2.9375 -21.078125 C -2.9375 -22.378906 -2.796875 -23.65625 -2.515625 -24.90625 C -2.234375 -26.164062 -1.90625 -27.398438 -1.53125 -28.609375 L 11.578125 -66.15625 C 13.441406 -71.550781 16.601562 -75.523438 21.0625 -78.078125 C 25.53125 -80.640625 30.046875 -81.921875 34.609375 -81.921875 C 38.148438 -81.921875 41.242188 -81.5 43.890625 -80.65625 C 46.546875 -79.820312 48.617188 -78.941406 50.109375 -78.015625 C 51.222656 -79.785156 52.707031 -81.109375 54.5625 -81.984375 C 56.425781 -82.867188 58.335938 -83.3125 60.296875 -83.3125 C 62.898438 -83.3125 65.25 -82.519531 67.34375 -80.9375 C 69.4375 -79.363281 70.484375 -77.039062 70.484375 -73.96875 C 70.484375 -72.570312 70.203125 -71.035156 69.640625 -69.359375 L 54.015625 -24.140625 C 53.546875 -22.460938 53.3125 -21.113281 53.3125 -20.09375 C 53.3125 -17.769531 54.566406 -16.609375 57.078125 -16.609375 C 59.222656 -16.609375 61.523438 -17.328125 63.984375 -18.765625 C 66.453125 -20.210938 68.894531 -22.609375 71.3125 -25.953125 C 73.726562 -29.304688 75.820312 -33.820312 77.59375 -39.5 C 78.4375 -42.195312 79.8125 -44.148438 81.71875 -45.359375 C 83.625 -46.566406 85.550781 -47.171875 87.5 -47.171875 Z M 41.453125 -48.5625 C 42.566406 -52.101562 43.125 -54.847656 43.125 -56.796875 C 43.125 -59.222656 42.519531 -61.0625 41.3125 -62.3125 C 40.101562 -63.570312 38.847656 -64.203125 37.546875 -64.203125 C 36.429688 -64.203125 35.007812 -63.664062 33.28125 -62.59375 C 31.5625 -61.519531 30.050781 -58.84375 28.75 -54.5625 L 19.8125 -26.515625 C 19.625 -25.867188 19.4375 -25.148438 19.25 -24.359375 C 19.070312 -23.566406 18.984375 -22.703125 18.984375 -21.765625 C 18.984375 -18.328125 20.519531 -16.609375 23.59375 -16.609375 C 25.070312 -16.609375 26.925781 -17.328125 29.15625 -18.765625 C 31.394531 -20.210938 33.257812 -23.210938 34.75 -27.765625 Z M 41.453125 -48.5625 "/></g></g></g><g fill="#000000" fill-opacity="1"><g transform="translate(167.807595, 150.071558)"><g><path d="M 123.65625 -46.75 C 125.789062 -46.75 127.695312 -46.144531 129.375 -44.9375 C 131.050781 -43.726562 131.890625 -42.007812 131.890625 -39.78125 C 131.890625 -39.3125 131.84375 -38.820312 131.75 -38.3125 C 131.65625 -37.800781 131.515625 -37.3125 131.328125 -36.84375 C 128.160156 -27.539062 124.414062 -20.210938 120.09375 -14.859375 C 115.769531 -9.515625 111.257812 -5.703125 106.5625 -3.421875 C 101.863281 -1.140625 97.1875 0 92.53125 0 C 88.4375 0 84.664062 -0.765625 81.21875 -2.296875 C 77.78125 -3.835938 75.015625 -6.09375 72.921875 -9.0625 C 70.828125 -12.039062 69.78125 -15.625 69.78125 -19.8125 C 69.78125 -22.882812 70.335938 -26.003906 71.453125 -29.171875 L 82.0625 -58.0625 C 82.4375 -59.175781 82.625 -60.195312 82.625 -61.125 C 82.625 -62.425781 82.203125 -63.472656 81.359375 -64.265625 C 80.523438 -65.054688 79.457031 -65.453125 78.15625 -65.453125 C 75.832031 -65.453125 73.503906 -64.453125 71.171875 -62.453125 C 68.847656 -60.453125 67.035156 -57.6875 65.734375 -54.15625 L 49.6875 -8.796875 C 48.664062 -5.816406 47.035156 -3.601562 44.796875 -2.15625 C 42.566406 -0.71875 40.289062 0 37.96875 0 C 35.632812 0 33.5625 -0.71875 31.75 -2.15625 C 29.9375 -3.601562 29.03125 -5.628906 29.03125 -8.234375 C 29.03125 -9.722656 29.398438 -11.441406 30.140625 -13.390625 L 46.46875 -58.75 C 46.84375 -59.59375 47.03125 -60.476562 47.03125 -61.40625 C 47.03125 -62.707031 46.585938 -63.707031 45.703125 -64.40625 C 44.816406 -65.101562 43.675781 -65.453125 42.28125 -65.453125 C 40.238281 -65.453125 38.171875 -64.632812 36.078125 -63 C 33.984375 -61.375 32.191406 -59.078125 30.703125 -56.109375 L 14.09375 -8.375 C 13.164062 -5.582031 11.628906 -3.488281 9.484375 -2.09375 C 7.347656 -0.695312 5.070312 0 2.65625 0 C 0.226562 0 -1.9375 -0.695312 -3.84375 -2.09375 C -5.75 -3.488281 -6.703125 -5.488281 -6.703125 -8.09375 C -6.703125 -9.207031 -6.515625 -10.320312 -6.140625 -11.4375 L 16.1875 -75.78125 C 17.03125 -77.832031 18.453125 -79.367188 20.453125 -80.390625 C 22.453125 -81.410156 24.519531 -81.921875 26.65625 -81.921875 C 28.238281 -81.921875 29.726562 -81.640625 31.125 -81.078125 C 32.519531 -80.523438 33.585938 -79.738281 34.328125 -78.71875 C 35.628906 -79.457031 37.164062 -80.175781 38.9375 -80.875 C 40.707031 -81.570312 43.035156 -81.921875 45.921875 -81.921875 C 50.015625 -81.921875 53.269531 -81.269531 55.6875 -79.96875 C 58.101562 -78.664062 60.054688 -77.175781 61.546875 -75.5 C 64.804688 -78.101562 68.109375 -79.820312 71.453125 -80.65625 C 74.804688 -81.5 77.738281 -81.921875 80.25 -81.921875 C 84.53125 -81.921875 88.414062 -81.128906 91.90625 -79.546875 C 95.394531 -77.960938 98.1875 -75.753906 100.28125 -72.921875 C 102.375 -70.085938 103.421875 -66.664062 103.421875 -62.65625 C 103.421875 -61.445312 103.300781 -60.164062 103.0625 -58.8125 C 102.832031 -57.46875 102.484375 -56.144531 102.015625 -54.84375 L 90.15625 -22.328125 C 90.0625 -22.046875 89.988281 -21.742188 89.9375 -21.421875 C 89.894531 -21.097656 89.875 -20.75 89.875 -20.375 C 89.875 -19.351562 90.222656 -18.46875 90.921875 -17.71875 C 91.617188 -16.976562 92.664062 -16.609375 94.0625 -16.609375 C 97.320312 -16.609375 100.765625 -18.445312 104.390625 -22.125 C 108.015625 -25.800781 111.363281 -31.820312 114.4375 -40.1875 C 115.1875 -42.425781 116.441406 -44.078125 118.203125 -45.140625 C 119.972656 -46.210938 121.789062 -46.75 123.65625 -46.75 Z M 123.65625 -46.75 "/></g></g></g><g fill="#000000" fill-opacity="1"><g transform="translate(277.497478, 150.071558)"><g><path d="M 70.625 -39.359375 C 71.269531 -41.492188 72.5 -43.097656 74.3125 -44.171875 C 76.125 -45.242188 78.007812 -45.78125 79.96875 -45.78125 C 82.101562 -45.78125 83.984375 -45.195312 85.609375 -44.03125 C 87.242188 -42.863281 88.0625 -41.210938 88.0625 -39.078125 C 88.0625 -38.148438 87.875 -37.171875 87.5 -36.140625 C 84.4375 -27.304688 80.160156 -20.238281 74.671875 -14.9375 C 69.179688 -9.632812 63.128906 -5.816406 56.515625 -3.484375 C 49.910156 -1.160156 43.351562 0 36.84375 0 C 30.050781 0 23.929688 -1.09375 18.484375 -3.28125 C 13.046875 -5.46875 8.742188 -8.582031 5.578125 -12.625 C 2.421875 -16.675781 0.84375 -21.445312 0.84375 -26.9375 C 0.84375 -28.519531 1.003906 -30.144531 1.328125 -31.8125 C 1.648438 -33.488281 2.09375 -35.164062 2.65625 -36.84375 L 10.890625 -60.703125 C 13.304688 -67.679688 17.257812 -72.960938 22.75 -76.546875 C 28.238281 -80.128906 34.097656 -81.921875 40.328125 -81.921875 C 45.628906 -81.921875 50.234375 -80.894531 54.140625 -78.84375 C 58.054688 -76.800781 61.109375 -74.007812 63.296875 -70.46875 C 65.484375 -66.9375 66.578125 -62.941406 66.578125 -58.484375 C 66.578125 -56.148438 66.203125 -53.585938 65.453125 -50.796875 C 63.585938 -44.566406 60.097656 -39.585938 54.984375 -35.859375 C 49.867188 -32.140625 44.148438 -30.28125 37.828125 -30.28125 C 35.035156 -30.28125 32.40625 -30.675781 29.9375 -31.46875 C 27.46875 -32.257812 25.210938 -33.257812 23.171875 -34.46875 L 22.046875 -31.8125 C 21.765625 -31.164062 21.578125 -30.515625 21.484375 -29.859375 C 21.398438 -29.210938 21.359375 -28.5625 21.359375 -27.90625 C 21.359375 -24.75 22.84375 -22.078125 25.8125 -19.890625 C 28.789062 -17.703125 32.84375 -16.609375 37.96875 -16.609375 C 41.96875 -16.609375 46.082031 -17.375 50.3125 -18.90625 C 54.539062 -20.445312 58.46875 -22.890625 62.09375 -26.234375 C 65.726562 -29.585938 68.570312 -33.960938 70.625 -39.359375 Z M 39.921875 -65.453125 C 38.335938 -65.453125 36.753906 -64.847656 35.171875 -63.640625 C 33.585938 -62.429688 32.425781 -60.753906 31.6875 -58.609375 L 28.75 -50.25 C 30.707031 -49.125 33.125 -48.5625 36 -48.5625 C 38.144531 -48.5625 40.144531 -49.023438 42 -49.953125 C 43.863281 -50.890625 45.125 -52.519531 45.78125 -54.84375 C 46.144531 -55.875 46.328125 -56.992188 46.328125 -58.203125 C 46.328125 -60.242188 45.742188 -61.960938 44.578125 -63.359375 C 43.421875 -64.753906 41.867188 -65.453125 39.921875 -65.453125 Z M 39.921875 -65.453125 "/></g></g></g><g fill="#000000" fill-opacity="1"><g transform="translate(343.646328, 150.071558)"><g><path d="M 74.109375 -39.5 C 74.847656 -41.539062 75.984375 -43.003906 77.515625 -43.890625 C 79.054688 -44.773438 80.664062 -45.21875 82.34375 -45.21875 C 84.570312 -45.21875 86.640625 -44.566406 88.546875 -43.265625 C 90.453125 -41.960938 91.40625 -40.285156 91.40625 -38.234375 C 91.40625 -37.960938 91.40625 -37.660156 91.40625 -37.328125 C 91.40625 -37.003906 91.316406 -36.703125 91.140625 -36.421875 C 87.878906 -27.023438 83.410156 -19.601562 77.734375 -14.15625 C 72.054688 -8.71875 65.585938 -4.832031 58.328125 -2.5 C 51.078125 -0.175781 43.40625 0.984375 35.3125 0.984375 C 27.125 0.984375 20.164062 -0.0820312 14.4375 -2.21875 C 8.71875 -4.363281 4.367188 -7.273438 1.390625 -10.953125 C -1.585938 -14.628906 -3.078125 -18.75 -3.078125 -23.3125 C -3.078125 -26.28125 -2.5625 -29.300781 -1.53125 -32.375 C -0.507812 -35.445312 1.046875 -38.171875 3.140625 -40.546875 C 5.234375 -42.921875 7.816406 -44.476562 10.890625 -45.21875 C 13.679688 -50.425781 16.515625 -55.703125 19.390625 -61.046875 C 22.273438 -66.398438 25.066406 -71.726562 27.765625 -77.03125 C 29.078125 -79.726562 30.960938 -81.753906 33.421875 -83.109375 C 35.890625 -84.460938 38.425781 -85.140625 41.03125 -85.140625 C 44.5625 -85.140625 47.375 -83.953125 49.46875 -81.578125 C 51.5625 -79.203125 52.609375 -76.523438 52.609375 -73.546875 C 52.609375 -71.503906 51.929688 -69.484375 50.578125 -67.484375 C 49.234375 -65.484375 47.585938 -64.0625 45.640625 -63.21875 C 45.921875 -61.082031 46.664062 -58.847656 47.875 -56.515625 C 49.082031 -54.191406 50.382812 -51.820312 51.78125 -49.40625 C 53.726562 -46.144531 55.585938 -42.628906 57.359375 -38.859375 C 59.128906 -35.097656 60.015625 -31.171875 60.015625 -27.078125 C 60.015625 -26.140625 59.96875 -25.253906 59.875 -24.421875 C 59.78125 -23.585938 59.640625 -22.703125 59.453125 -21.765625 C 62.710938 -23.628906 65.550781 -26.023438 67.96875 -28.953125 C 70.382812 -31.890625 72.429688 -35.40625 74.109375 -39.5 Z M 29.859375 -43.265625 C 31.078125 -42.054688 31.960938 -40.679688 32.515625 -39.140625 C 33.078125 -37.609375 33.359375 -36.050781 33.359375 -34.46875 C 33.359375 -31.03125 32.238281 -27.890625 30 -25.046875 C 27.769531 -22.210938 24.609375 -20.796875 20.515625 -20.796875 C 20.046875 -20.796875 19.53125 -20.816406 18.96875 -20.859375 C 18.414062 -20.910156 17.863281 -20.984375 17.3125 -21.078125 C 18.050781 -19.304688 19.394531 -17.910156 21.34375 -16.890625 C 23.300781 -15.867188 25.441406 -15.359375 27.765625 -15.359375 C 31.492188 -15.535156 34.238281 -16.8125 36 -19.1875 C 37.769531 -21.5625 38.65625 -24.378906 38.65625 -27.640625 C 38.65625 -30.890625 37.929688 -34.117188 36.484375 -37.328125 C 35.046875 -40.535156 33.257812 -43.398438 31.125 -45.921875 Z M 29.859375 -43.265625 "/></g></g></g></g></g></svg>